<svg xmlns="http://www.w3.org/2000/svg" xmlns:xlink="http://www.w3.org/1999/xlink" width="60" height="60" viewBox="0 0 60 60">
  <defs>
    <clipPath id="clip-Sign-icon-60x60">
      <rect width="60" height="60"/>
    </clipPath>
  </defs>
  <g id="Sign-icon-60x60" clip-path="url(#clip-Sign-icon-60x60)">
    <rect width="60" height="60" fill="#fff"/>
    <g id="Group_161827" data-name="Group 161827" transform="translate(-386 -85)">
      <path id="Path_102981" data-name="Path 102981" d="M13.125,0h33.75A13.125,13.125,0,0,1,60,13.125v33.75A13.125,13.125,0,0,1,46.875,60H13.125A13.125,13.125,0,0,1,0,46.875V13.125A13.125,13.125,0,0,1,13.125,0Z" transform="translate(386 85)" fill="#000b1d"/>
      <g id="Layer_3" data-name="Layer 3" transform="translate(397.174 96.693)">
        <g id="Layer_86" data-name="Layer 86">
          <path id="_64" data-name=" 64" d="M47.187,33.028c-2.809-2.986-10.577-1.771-12.4-1.467A31.584,31.584,0,0,1,29.6,24.728a30.472,30.472,0,0,0,1.771-8.958c0-2.732-1.089-5.668-4.125-5.668a3.081,3.081,0,0,0-2.556,1.493c-1.29,2.227-.784,6.833,1.29,11.489a77.666,77.666,0,0,1-5.263,12.348C17.607,36.672,11,39.708,10.37,43.073a2.843,2.843,0,0,0,.91,2.682,3.851,3.851,0,0,0,2.682.962c3.974,0,7.946-5.516,10.629-10.248a67.453,67.453,0,0,1,9.463-2.48c4.2,3.669,7.946,4.226,9.844,4.226,2.58,0,3.543-1.114,3.9-2.05A3.163,3.163,0,0,0,47.187,33.028Zm-2.732,1.924c-.127.733-1.063,1.467-2.809,1.088a14.053,14.053,0,0,1-5.516-2.783,22.9,22.9,0,0,1,6.807-.1C43.747,33.306,44.683,33.762,44.455,34.952ZM26.336,12.557A1.018,1.018,0,0,1,27.223,12c.961,0,1.164,1.164,1.164,2.126a29.5,29.5,0,0,1-1.265,6.757C25.5,16.58,25.73,13.595,26.336,12.557Zm-.228,21.028a63.84,63.84,0,0,0,2.506-6.022,31.839,31.839,0,0,0,3.441,4.5A56.785,56.785,0,0,0,26.109,33.584Zm-6.352,4.353c-2.556,4.1-5.06,6.68-6.528,6.68a1.039,1.039,0,0,1-.658-.228.943.943,0,0,1-.329-.936C12.521,41.986,15.431,39.86,19.757,37.937Z" transform="translate(-10.314 -10.102)" fill="#fff"/>
        </g>
      </g>
    </g>
  </g>
</svg>
